<svg xmlns="http://www.w3.org/2000/svg" width="61" height="60" viewBox="0 0 61 60" fill="none"><circle cx="43.771" cy="38.75" r="6.25" fill="#EDD3DC"></circle><path d="M40.7175 48.415C39.8008 48.2067 39.0275 47.9317 38.3975 47.59C37.7675 47.2483 37.1592 46.7508 36.5725 46.0975L35.28 46.62C35.0517 46.7033 34.8283 46.7175 34.61 46.6625C34.3933 46.6058 34.2175 46.4683 34.0825 46.25L33.735 45.675C33.5683 45.455 33.5025 45.2158 33.5375 44.9575C33.5742 44.6975 33.6967 44.4792 33.905 44.3025L34.955 43.4525C34.6483 42.5992 34.495 41.7525 34.495 40.9125C34.495 40.0725 34.6492 39.2108 34.9575 38.3275L33.905 37.4275C33.6967 37.2508 33.5667 37.0408 33.515 36.7975C33.4633 36.5542 33.5208 36.3233 33.6875 36.105L34.0825 35.48C34.2158 35.2633 34.3917 35.1267 34.61 35.07C34.8283 35.0133 35.0517 35.0267 35.28 35.11L36.5725 35.635C37.1275 35.0133 37.7442 34.5233 38.4225 34.165C39.1008 33.8067 39.8658 33.5242 40.7175 33.3175L40.8925 32.0575C40.9458 31.7975 41.0575 31.5817 41.2275 31.41C41.3975 31.2383 41.6183 31.1525 41.89 31.1525H42.5825C42.8508 31.1525 43.0708 31.2383 43.2425 31.41C43.4142 31.5817 43.5258 31.7975 43.5775 32.0575L43.755 33.3175C44.6083 33.4942 45.3658 33.7692 46.0275 34.1425C46.6892 34.5158 47.3133 35.0133 47.9 35.635L49.1925 35.11C49.4208 35.0267 49.6433 35.0133 49.86 35.07C50.0783 35.125 50.255 35.2617 50.39 35.48L50.785 36.105C50.9517 36.3233 51.0092 36.5542 50.9575 36.7975C50.9058 37.0408 50.7758 37.2508 50.5675 37.4275L49.515 38.3275C49.855 39.2442 50.0167 40.1142 50 40.9375C49.9833 41.7608 49.8058 42.5992 49.4675 43.4525L50.5175 44.3025C50.6625 44.4142 50.785 44.6 50.885 44.86C50.985 45.12 50.935 45.3908 50.735 45.6725L50.39 46.25C50.255 46.4667 50.0783 46.6033 49.86 46.66C49.6433 46.7167 49.4208 46.7033 49.1925 46.62L47.9 46.095C47.3133 46.7167 46.705 47.2067 46.075 47.565C45.445 47.9233 44.6717 48.2067 43.755 48.415L43.5775 49.6725C43.5258 49.9325 43.4142 50.1483 43.2425 50.32C43.0708 50.4917 42.8508 50.5775 42.5825 50.5775H41.89C41.62 50.5775 41.3992 50.4917 41.2275 50.32C41.0575 50.1483 40.9467 49.9325 40.895 49.6725L40.7175 48.415ZM42.235 46.25C43.7067 46.25 44.9725 45.72 46.0325 44.66C47.0908 43.6017 47.62 42.3367 47.62 40.865C47.62 39.3933 47.09 38.1283 46.03 37.07C44.97 36.0117 43.705 35.4817 42.235 35.48C40.765 35.4783 39.5 36.0083 38.44 37.07C37.38 38.1317 36.85 39.3967 36.85 40.865C36.85 42.3367 37.38 43.6017 38.44 44.66C39.5 45.72 40.765 46.25 42.235 46.25ZM13.04 50C11.8883 50 10.9275 49.615 10.1575 48.845C9.3875 48.075 9.00167 47.1133 9 45.96V14.04C9 12.8883 9.38583 11.9275 10.1575 11.1575C10.9292 10.3875 11.89 10.0017 13.04 10H44.9625C46.1125 10 47.0733 10.3858 47.845 11.1575C48.6167 11.9292 49.0017 12.89 49 14.04V25.4475C49 25.8025 48.8808 26.0892 48.6425 26.3075C48.4042 26.5258 48.1067 26.6342 47.75 26.6325C47.3933 26.6308 47.0958 26.5125 46.8575 26.2775C46.6192 26.0425 46.5 25.745 46.5 25.385V14.04C46.5 13.59 46.3558 13.2208 46.0675 12.9325C45.7792 12.6442 45.4108 12.5 44.9625 12.5H13.0375C12.5892 12.5 12.2208 12.6442 11.9325 12.9325C11.6442 13.2208 11.5 13.59 11.5 14.04V36.54H20.425C21.0517 36.54 21.5208 36.6383 21.8325 36.835C22.1442 37.0317 22.4033 37.3333 22.61 37.74C23.0683 38.555 23.6183 39.2442 24.26 39.8075C24.905 40.3725 25.62 40.8008 26.405 41.0925C26.59 41.1842 26.7417 41.2917 26.86 41.415C26.98 41.5367 27.0508 41.695 27.0725 41.89C27.1942 42.8967 27.4017 43.8633 27.695 44.79C27.9883 45.7183 28.3883 46.6183 28.895 47.49C29.2183 48.0517 29.2458 48.61 28.9775 49.165C28.7075 49.7217 28.2708 50 27.6675 50H13.04Z" fill="#FF4F4F"></path></svg>