<svg xmlns="http://www.w3.org/2000/svg" width="64" height="64" viewBox="0 0 64 64" fill="none"><circle cx="32" cy="32" r="31.5" fill="white" stroke="#E0DEF7"></circle><circle cx="32" cy="32" r="28" fill="#C5E2FC"></circle><path d="M43.25 25.3562C43.25 23.9837 43.25 23.2987 42.905 22.7187C42.56 22.1387 41.9238 21.7612 40.6525 21L39.035 20.0325C37.0388 18.8375 36.04 18.24 35.27 18.61C34.5 18.98 34.5 20.0562 34.5 22.2087V43.5H43.25V25.3562ZM44.5 43.5H19.5H44.5ZM34.5 27.25H29.5H34.5ZM34.5 34.75H29.5H34.5ZM20.75 25.3562C20.75 23.9837 20.75 23.2987 21.095 22.7187C21.44 22.1387 22.0763 21.7612 23.3475 21L24.965 20.0325C26.9625 18.8362 27.96 18.2375 28.73 18.6087C29.5 18.98 29.5 20.0562 29.5 22.2087V43.5H20.75V25.3562ZM25.1263 26H25.115H25.1263ZM25.1275 31H25.115H25.1275ZM25.1275 36H25.115H25.1275ZM38.8763 26H38.865H38.8763ZM38.8775 31H38.865H38.8775ZM38.8775 36H38.865H38.8775Z" fill="white"></path><path d="M44.5 43.5H19.5M34.5 27.25H29.5M34.5 34.75H29.5M25.1263 26H25.115M25.1275 31H25.115M25.1275 36H25.115M38.8763 26H38.865M38.8775 31H38.865M38.8775 36H38.865M43.25 25.3562C43.25 23.9837 43.25 23.2987 42.905 22.7187C42.56 22.1387 41.9238 21.7612 40.6525 21L39.035 20.0325C37.0388 18.8375 36.04 18.24 35.27 18.61C34.5 18.98 34.5 20.0562 34.5 22.2087V43.5H43.25V25.3562ZM20.75 25.3562C20.75 23.9837 20.75 23.2987 21.095 22.7187C21.44 22.1387 22.0763 21.7612 23.3475 21L24.965 20.0325C26.9625 18.8362 27.96 18.2375 28.73 18.6087C29.5 18.98 29.5 20.0562 29.5 22.2087V43.5H20.75V25.3562Z" stroke="#2177C7" stroke-width="1.5" stroke-linecap="round" stroke-linejoin="round"></path><path d="M40 40H64V52C64 58.6274 58.6274 64 52 64C45.3726 64 40 58.6274 40 52V40Z" fill="#2177C7"></path><path d="M48 51.9987L50.6667 54.6654L56 49.332" stroke="white" stroke-width="2" stroke-linecap="round" stroke-linejoin="round"></path></svg>