<svg xmlns="http://www.w3.org/2000/svg" width="64" height="64" viewBox="0 0 64 64" fill="none"><circle cx="32" cy="32" r="31.5" fill="white" stroke="#E0DEF7"></circle><circle cx="32" cy="32" r="28" fill="#C5E2FC"></circle><path d="M40 51C40 49.741 40.5928 48.5554 41.6 47.8L49.6 41.8C51.0222 40.7333 52.9778 40.7333 54.4 41.8L62.4 47.8C63.4072 48.5554 64 49.741 64 51V64H40V51Z" fill="#2177C7"></path><path d="M50.6667 55.3333C50.3934 55.3333 50.1667 55.56 50.1667 55.8333V56.8333C50.1667 57.1067 50.3934 57.3333 50.6667 57.3333C50.9401 57.3333 51.1667 57.1067 51.1667 56.8333V55.8333C51.1667 55.56 50.9401 55.3333 50.6667 55.3333Z" fill="white"></path><path d="M58.6666 59.1667H57.9999V51.6533C57.9999 51.24 57.8133 50.8533 57.4866 50.6L52.8199 46.9733C52.3399 46.5933 51.6599 46.5933 51.1799 46.9733L46.5133 50.6C46.1866 50.8533 45.9999 51.24 45.9999 51.6467L45.9666 59.1667H45.3333C45.0599 59.1667 44.8333 59.3867 44.8333 59.6667C44.8333 59.94 45.0599 60.1667 45.3333 60.1667H58.6666C58.9399 60.1667 59.1666 59.94 59.1666 59.6667C59.1666 59.3867 58.9399 59.1667 58.6666 59.1667ZM50.9999 49.5H52.9999C53.2733 49.5 53.4999 49.7267 53.4999 50C53.4999 50.2733 53.2733 50.5 52.9999 50.5H50.9999C50.7266 50.5 50.4999 50.2733 50.4999 50C50.4999 49.7267 50.7266 49.5 50.9999 49.5ZM55.3333 59.1667H48.6666V53.3333C48.6666 52.78 49.1133 52.3333 49.6666 52.3333H54.3333C54.8866 52.3333 55.3333 52.78 55.3333 53.3333V59.1667Z" fill="white"></path><g clip-path="url(#clip0_11464_38649)"><path fill-rule="evenodd" clip-rule="evenodd" d="M18.6667 32H21.6296V42.3704C21.6296 43.1562 21.9418 43.9098 22.4975 44.4655C23.0531 45.0212 23.8068 45.3333 24.5926 45.3333H39.4074C40.1932 45.3333 40.9469 45.0212 41.5025 44.4655C42.0582 43.9098 42.3704 43.1562 42.3704 42.3704V32H42.3705H45.3334L32.0001 18.6667L18.6667 32Z" fill="white"></path><path d="M21.6296 32H22.6296C22.6296 31.4477 22.1819 31 21.6296 31V32ZM18.6667 32L17.9596 31.2929C17.6736 31.5789 17.5881 32.009 17.7429 32.3827C17.8976 32.7563 18.2623 33 18.6667 33V32ZM22.4975 44.4655L23.2046 43.7584L22.4975 44.4655ZM41.5025 44.4655L40.7954 43.7584L40.7954 43.7584L41.5025 44.4655ZM42.3704 32V31C41.8181 31 41.3704 31.4477 41.3704 32H42.3704ZM45.3334 32V33C45.7379 33 46.1025 32.7563 46.2573 32.3827C46.4121 32.009 46.3265 31.5789 46.0405 31.2929L45.3334 32ZM32.0001 18.6667L32.7072 17.9595C32.3167 17.569 31.6835 17.569 31.293 17.9595L32.0001 18.6667ZM21.6296 31H18.6667V33H21.6296V31ZM20.6296 32V42.3704H22.6296V32H20.6296ZM20.6296 42.3704C20.6296 43.4214 21.0472 44.4294 21.7904 45.1726L23.2046 43.7584C22.8364 43.3903 22.6296 42.891 22.6296 42.3704H20.6296ZM21.7904 45.1726C22.5336 45.9158 23.5416 46.3333 24.5926 46.3333V44.3333C24.072 44.3333 23.5727 44.1265 23.2046 43.7584L21.7904 45.1726ZM24.5926 46.3333H39.4074V44.3333H24.5926V46.3333ZM39.4074 46.3333C40.4585 46.3333 41.4665 45.9158 42.2097 45.1726L40.7954 43.7584C40.4273 44.1265 39.928 44.3333 39.4074 44.3333V46.3333ZM42.2097 45.1726C42.9529 44.4294 43.3704 43.4214 43.3704 42.3704H41.3704C41.3704 42.891 41.1636 43.3903 40.7954 43.7584L42.2097 45.1726ZM43.3704 42.3704V32H41.3704V42.3704H43.3704ZM42.3705 31H42.3704V33H42.3705V31ZM45.3334 31H42.3705V33H45.3334V31ZM31.293 19.3738L44.6263 32.7071L46.0405 31.2929L32.7072 17.9595L31.293 19.3738ZM19.3739 32.7071L32.7072 19.3738L31.293 17.9595L17.9596 31.2929L19.3739 32.7071Z" fill="white"></path><path d="M28 34.0002L30.6667 36.6668L36 31.3335" stroke="#2177C7" stroke-width="2" stroke-linecap="round" stroke-linejoin="round"></path></g><defs><clipPath id="clip0_11464_38649"><rect width="32" height="32" fill="white" transform="translate(16 16)"></rect></clipPath></defs></svg>