<svg xmlns="http://www.w3.org/2000/svg" width="66" height="66" viewBox="0 0 66 66" fill="none"><g clip-path="url(#clip0_11464_38719)"><path d="M23.503 27.0548C23.7066 27.2329 23.7286 27.556 23.5491 27.7617C21.3101 30.3071 17.7698 35.6116 17.9699 43.552L17.9933 44.4826L18.7562 43.9492C19.9005 43.1492 21.6677 42.0418 23.9038 40.9738C24.0208 40.9252 24.1521 40.923 24.2708 40.9676C24.392 41.0132 24.4907 41.104 24.5462 41.221C24.6017 41.3379 24.6095 41.4719 24.5682 41.5945C24.5275 41.715 24.4425 41.8153 24.3306 41.8752C22.3639 42.8096 20.7674 43.7879 19.6583 44.5365C19.1026 44.9115 18.6686 45.2294 18.3708 45.4558C18.222 45.5691 18.107 45.6596 18.0278 45.7231C17.9883 45.7549 17.9574 45.7801 17.9355 45.7982L17.9334 45.7999C17.9276 45.8047 17.9141 45.8157 17.8997 45.8283C17.8123 45.9001 17.7025 45.9372 17.5828 45.9372C17.5121 45.9372 17.4463 45.9252 17.3952 45.9042C17.3104 45.8677 17.2366 45.8096 17.1811 45.7357C17.1263 45.6625 17.0913 45.5764 17.0796 45.4858C16.1921 36.1426 20.2845 29.9547 22.7948 27.1016L22.7957 27.1006C22.974 26.8968 23.2973 26.8749 23.503 27.0548ZM48.0199 43.5411C48.2094 35.6021 44.6806 30.2984 42.442 27.7425C42.3551 27.6417 42.3113 27.5108 42.32 27.378C42.3287 27.2458 42.3887 27.1223 42.4872 27.0338C42.5878 26.9478 42.7181 26.9045 42.8502 26.9132C42.9831 26.9219 43.1072 26.9825 43.1958 27.0819C45.7066 29.9359 49.7996 36.1361 48.9095 45.4823L48.9094 45.4823L48.9089 45.4882C48.8938 45.6698 48.7794 45.8229 48.6099 45.8877L48.5785 45.8997L48.549 45.9158C48.5335 45.9243 48.5007 45.9372 48.4172 45.9372C48.3071 45.9372 48.1844 45.8957 48.0897 45.8176C48.0726 45.8028 48.0569 45.7901 48.0534 45.7873C48.0315 45.7692 48.0005 45.744 47.9608 45.7123C47.8814 45.6488 47.7661 45.5583 47.6169 45.4451C47.3185 45.2187 46.8836 44.901 46.3274 44.5261C45.2156 43.7765 43.6163 42.7966 41.6511 41.861C41.5317 41.8037 41.4398 41.7016 41.3953 41.5769C41.351 41.4526 41.3574 41.3159 41.413 41.1963C41.5337 40.9469 41.8348 40.8431 42.0755 40.9585L42.0778 40.9596C43.8758 41.8099 45.6007 42.8067 47.2351 43.94L47.9977 44.4688L48.0199 43.5411ZM28.0341 52.5236L28.034 52.523C28.029 52.3926 28.0805 52.2545 28.1758 52.1539C28.2676 52.057 28.3945 52.0007 28.5347 52.0007H37.474C37.5414 52.0012 37.608 52.0152 37.6699 52.0418L37.8672 51.5823L37.6699 52.0418C37.7322 52.0685 37.7885 52.1075 37.8354 52.1563C37.8823 52.2052 37.919 52.263 37.9432 52.3263C37.9673 52.3895 37.9786 52.4568 37.9763 52.5244C37.7139 59.5505 33.5674 65.0866 33.4003 65.3L33.3988 65.3021C33.3513 65.3634 33.2905 65.413 33.221 65.4473C33.1519 65.4814 33.076 65.4995 32.999 65.5001C32.8417 65.4997 32.6936 65.425 32.606 65.3082L32.6027 65.3038C32.368 64.987 28.2938 59.4876 28.0341 52.5236ZM29.5969 53.0013H29.0461L29.0992 53.5495C29.5222 57.917 31.4525 61.6228 32.5741 63.4467L33 64.1393L33.4259 63.4467C34.5475 61.6228 36.4778 57.917 36.9008 53.5495L36.9539 53.0013H36.4032H29.5969Z" fill="black" stroke="#27C200"></path><path d="M24.2541 44.1861L24.254 44.1858C23.1355 39.9251 22.5691 35.5384 22.5688 31.1334C22.5688 9.68622 32.3079 0.94181 32.6579 0.635081C32.8511 0.468723 33.1281 0.468644 33.3214 0.634842C33.688 0.957281 43.4107 9.70318 43.4107 31.1334C43.4107 35.5564 42.8489 39.9477 41.7259 44.1847L41.7228 44.1963L41.7203 44.208C41.6801 44.3954 41.4942 44.5553 41.2604 44.5553H24.7398C24.5108 44.5553 24.3093 44.3968 24.2541 44.1861ZM25.0381 43.1744L25.1319 43.5546H25.5235H40.487H40.8786L40.9724 43.1744C41.9412 39.2471 42.4307 35.2057 42.4307 31.1334C42.4307 13.4902 35.6163 4.55688 33.3804 2.09735L33.0096 1.68951L32.6397 2.09815C30.4047 4.56727 23.5798 13.5517 23.5798 31.1334C23.5798 35.2057 24.0693 39.2471 25.0381 43.1744Z" fill="black" stroke="#27C200"></path><path d="M38.1562 9.28125H27.328C21.553 20.4187 23.203 36.9531 24.7499 43.8281H41.2499C45.3749 28.9781 40.9062 14.6094 38.1562 9.28125Z" fill="#C1EACC" stroke="#27C200"></path><path d="M39.0296 47.3956L38.1326 44.1891C38.1326 44.1891 38.1326 44.1891 38.1326 44.189C38.0974 44.0622 38.1138 43.9267 38.1784 43.812L37.7427 43.5667L38.1784 43.812C38.2427 43.6977 38.3496 43.6135 38.4757 43.5777C38.6025 43.5435 38.7376 43.5604 38.8521 43.6249L39.0974 43.1892L38.8521 43.6249C38.9668 43.6894 39.0514 43.7964 39.0879 43.9228C39.088 43.9232 39.0881 43.9237 39.0882 43.9241L40.3348 48.3954C40.3349 48.3956 40.3349 48.3958 40.335 48.3959C40.3748 48.5409 40.3478 48.704 40.248 48.8442C40.1664 48.9528 40.0175 49.0309 39.8681 49.0309H26.1318C25.9747 49.0309 25.8266 48.9566 25.7386 48.8402C25.6922 48.7771 25.6605 48.7043 25.646 48.6272C25.6315 48.5501 25.6345 48.4707 25.6549 48.395C25.655 48.3946 25.6551 48.3941 25.6553 48.3937L26.9022 43.9211L26.9034 43.9168C26.9748 43.6515 27.2501 43.5001 27.5067 43.5756L27.5067 43.5757L27.5178 43.5787C27.7832 43.6502 27.9345 43.9255 27.859 44.182L27.859 44.182L27.8572 44.1884L26.96 47.3956L26.7825 48.0303H27.4415H38.5481H39.2072L39.0296 47.3956ZM33 25.1884C30.2752 25.1884 28.055 22.9682 28.055 20.2434C28.055 17.5186 30.2752 15.2984 33 15.2984C35.7248 15.2984 37.945 17.5186 37.945 20.2434C37.945 22.9682 35.7248 25.1884 33 25.1884ZM33 16.3093C30.8263 16.3093 29.0556 18.0801 29.0556 20.2537C29.0556 22.4274 30.8263 24.1981 33 24.1981C34.0461 24.1981 35.0493 23.7825 35.7891 23.0428C36.5288 22.3031 36.9443 21.2998 36.9443 20.2537C36.9443 19.2076 36.5288 18.2043 35.7891 17.4646C35.0493 16.7249 34.0461 16.3093 33 16.3093ZM38.5068 9.64748H27.4931C27.2124 9.64748 26.9928 9.4279 26.9928 9.14716C26.9928 8.86643 27.2124 8.64685 27.4931 8.64685H38.5068C38.7876 8.64685 39.0072 8.86643 39.0072 9.14716C39.0072 9.42789 38.7876 9.64748 38.5068 9.64748Z" fill="black" stroke="#27C200"></path></g><defs><clipPath id="clip0_11464_38719"><rect width="66" height="66" fill="white"></rect></clipPath></defs></svg>