<svg xmlns="http://www.w3.org/2000/svg" width="61" height="60" viewBox="0 0 61 60" fill="none"><g clip-path="url(#clip0_11464_38705)"><path opacity="0.2" d="M9.48008 8.71472H52.6801C53.0164 8.71472 53.3206 8.83883 53.5299 9.0318C53.7358 9.22163 53.8301 9.45628 53.8301 9.67722V51.7147C53.8301 53.1092 53.2301 54.4694 52.124 55.4891C51.0145 56.5119 49.4895 57.1022 47.8801 57.1022H14.2801C12.6707 57.1022 11.1457 56.5119 10.0362 55.4891C8.93008 54.4694 8.33008 53.1092 8.33008 51.7147V9.67722C8.33008 9.45628 8.42437 9.22163 8.63028 9.0318C8.8396 8.83883 9.14375 8.71472 9.48008 8.71472Z" fill="#2177C7" stroke="#2177C7" stroke-width="2.5"></path><path d="M21.4801 31.8022H40.6801" stroke="#2177C7" stroke-width="2.5" stroke-linecap="round" stroke-linejoin="round"></path><path d="M21.4801 40.6522H40.6801" stroke="#2177C7" stroke-width="2.5" stroke-linecap="round" stroke-linejoin="round"></path><path d="M9.48008 7.46472H52.6801C53.3166 7.46472 53.9271 7.69782 54.3771 8.11275C54.8272 8.52767 55.0801 9.09043 55.0801 9.67722V51.7147C55.0801 53.4751 54.3215 55.1634 52.9713 56.4081C51.621 57.6529 49.7896 58.3522 47.8801 58.3522H14.2801C12.3705 58.3522 10.5392 57.6529 9.18891 56.4081C7.83865 55.1634 7.08008 53.4751 7.08008 51.7147V9.67722C7.08008 9.09043 7.33294 8.52767 7.78302 8.11275C8.23311 7.69782 8.84356 7.46472 9.48008 7.46472Z" stroke="#2177C7" stroke-width="2.5" stroke-linecap="round" stroke-linejoin="round"></path><path d="M16.6801 3.03967V11.8897" stroke="#2177C7" stroke-width="2.5" stroke-linecap="round" stroke-linejoin="round"></path><path d="M31.0801 3.03967V11.8897" stroke="#2177C7" stroke-width="2.5" stroke-linecap="round" stroke-linejoin="round"></path><path d="M45.4801 3.03967V11.8897" stroke="#2177C7" stroke-width="2.5" stroke-linecap="round" stroke-linejoin="round"></path></g><defs><clipPath id="clip0_11464_38705"><rect width="60" height="60" fill="white" transform="translate(0.599609)"></rect></clipPath></defs></svg>