<svg xmlns="http://www.w3.org/2000/svg" width="64" height="64" viewBox="0 0 64 64" fill="none"><circle cx="32" cy="32" r="31.5" fill="white" stroke="#E0DEF7"></circle><circle cx="32" cy="32" r="28" fill="#C5E2FC"></circle><rect x="40" y="40" width="24" height="24" rx="12" fill="#2177C7"></rect><path d="M51.5 49.3867V51.2933L50.8267 51.06C50.4867 50.94 50.28 50.8267 50.28 50.2467C50.28 49.7733 50.6334 49.3867 51.0667 49.3867H51.5Z" fill="white"></path><path d="M53.72 53.7533C53.72 54.2267 53.3667 54.6133 52.9333 54.6133H52.5V52.7067L53.1733 52.94C53.5133 53.06 53.72 53.1733 53.72 53.7533Z" fill="white"></path><path d="M54.7934 45.3333H49.2067C46.78 45.3333 45.3334 46.78 45.3334 49.2067V54.7933C45.3334 57.22 46.78 58.6667 49.2067 58.6667H54.7934C57.22 58.6667 58.6667 57.22 58.6667 54.7933V49.2067C58.6667 46.78 57.22 45.3333 54.7934 45.3333ZM53.5067 52C54.0267 52.18 54.72 52.56 54.72 53.7533C54.72 54.78 53.92 55.6133 52.9334 55.6133H52.5V56C52.5 56.2733 52.2734 56.5 52 56.5C51.7267 56.5 51.5 56.2733 51.5 56V55.6133H51.26C50.1667 55.6133 49.28 54.6867 49.28 53.5533C49.28 53.28 49.5 53.0533 49.78 53.0533C50.0534 53.0533 50.28 53.28 50.28 53.5533C50.28 54.14 50.72 54.6133 51.26 54.6133H51.5V52.3533L50.4934 52C49.9734 51.82 49.28 51.44 49.28 50.2467C49.28 49.22 50.08 48.3867 51.0667 48.3867H51.5V48C51.5 47.7267 51.7267 47.5 52 47.5C52.2734 47.5 52.5 47.7267 52.5 48V48.3867H52.74C53.8334 48.3867 54.72 49.3133 54.72 50.4467C54.72 50.72 54.5 50.9467 54.22 50.9467C53.9467 50.9467 53.72 50.72 53.72 50.4467C53.72 49.86 53.28 49.3867 52.74 49.3867H52.5V51.6467L53.5067 52Z" fill="white"></path><path d="M31.9998 19.9988L18.6665 29.3321H23.9865L23.9998 43.9988H39.9998V29.3321H45.3331L31.9998 19.9988Z" fill="white" stroke="white" stroke-width="2" stroke-linecap="round" stroke-linejoin="round"></path><g filter="url(#filter0_d_11464_38638)"><path d="M35.9998 29.3321L27.9998 37.3321" stroke="#2177C7" stroke-width="2" stroke-linecap="round" stroke-linejoin="round"></path></g><g filter="url(#filter1_d_11464_38638)"><path d="M35.3331 35.9988C34.9649 35.9988 34.6664 36.2973 34.6664 36.6655C34.6664 37.0336 34.9649 37.3321 35.3331 37.3321C35.7013 37.3321 35.9998 37.0336 35.9998 36.6655C35.9998 36.2973 35.7013 35.9988 35.3331 35.9988Z" fill="#7065F0"></path><path d="M35.3331 35.9988C34.9649 35.9988 34.6664 36.2973 34.6664 36.6655C34.6664 37.0336 34.9649 37.3321 35.3331 37.3321C35.7013 37.3321 35.9998 37.0336 35.9998 36.6655C35.9998 36.2973 35.7013 35.9988 35.3331 35.9988Z" stroke="#2177C7" stroke-width="2" stroke-linecap="round" stroke-linejoin="round"></path></g><path d="M28.6665 29.3321C28.2983 29.3321 27.9998 29.6306 27.9998 29.9988C27.9998 30.367 28.2983 30.6654 28.6665 30.6654C29.0347 30.6654 29.3331 30.367 29.3331 29.9988C29.3331 29.6306 29.0347 29.3321 28.6665 29.3321Z" fill="#7065F0" stroke="#2177C7" stroke-width="2" stroke-linecap="round" stroke-linejoin="round"></path><defs><filter id="filter0_d_11464_38638" x="24.9998" y="26.3321" width="18" height="18" filterUnits="userSpaceOnUse" color-interpolation-filters="sRGB"><feGaussianBlur stdDeviation="2"></feGaussianBlur></filter><filter id="filter1_d_11464_38638" x="31.6664" y="32.9988" width="11.3334" height="11.3333" filterUnits="userSpaceOnUse" color-interpolation-filters="sRGB"><feGaussianBlur stdDeviation="2"></feGaussianBlur></filter></defs></svg>