<svg xmlns="http://www.w3.org/2000/svg" width="64" height="65" viewBox="0 0 64 65" fill="none"><circle cx="32" cy="32" r="31.5" fill="white" stroke="#E0DEF7"></circle><circle cx="32" cy="32" r="28" fill="#C5E2FC"></circle><rect x="40" y="40" width="24" height="24" rx="12" fill="#2177C7"></rect><g filter="url(#filter0_d_11464_38618)"><path d="M54.6663 47.668H51.333C50.8026 47.668 50.2939 47.8787 49.9188 48.2538C49.5437 48.6288 49.333 49.1375 49.333 49.668C49.333 50.1984 49.5437 50.7071 49.9188 51.0822C50.2939 51.4573 50.8026 51.668 51.333 51.668H52.6663C53.1968 51.668 53.7055 51.8787 54.0806 52.2538C54.4556 52.6288 54.6663 53.1375 54.6663 53.668C54.6663 54.1984 54.4556 54.7071 54.0806 55.0822C53.7055 55.4573 53.1968 55.668 52.6663 55.668H49.333M51.9997 55.668V57.668M51.9997 45.668V47.668" stroke="white" stroke-width="2" stroke-linecap="round" stroke-linejoin="round"></path></g><path d="M35.4299 24.9085H36.089H35.4299ZM41.3613 18.9771V19.6362V18.9771ZM46.6337 24.9085H47.2927H46.6337ZM37.1434 20.6906L37.6048 21.152L37.1434 20.6906ZM45.5792 20.6906L45.1179 21.152L45.5792 20.6906ZM39.3842 27.5447C38.8309 27.1297 38.4222 26.5512 38.216 25.8911C38.0098 25.2309 38.0165 24.5226 38.2352 23.8665C38.4539 23.2104 38.8735 22.6397 39.4346 22.2353C39.9957 21.8309 40.6697 21.6133 41.3613 21.6133C42.053 21.6133 42.727 21.8309 43.2881 22.2353C43.8492 22.6397 44.2688 23.2104 44.4875 23.8665C44.7062 24.5226 44.7129 25.2309 44.5067 25.8911C44.3005 26.5512 43.8918 27.1297 43.3385 27.5447C43.0812 27.7994 42.8874 28.1111 42.7729 28.4546C42.6584 28.7981 42.6264 29.1637 42.6794 29.5218C42.6794 29.8714 42.5406 30.2067 42.2934 30.4539C42.0462 30.7011 41.7109 30.8399 41.3613 30.8399C41.0118 30.8399 40.6765 30.7011 40.4293 30.4539C40.1821 30.2067 40.0432 29.8714 40.0432 29.5218C40.0963 29.1637 40.0642 28.7981 39.9497 28.4546C39.8353 28.1111 39.6415 27.7994 39.3842 27.5447ZM39.8455 28.2038H42.8771H39.8455Z" fill="white"></path><path d="M35.4299 24.9085H36.089M41.3613 18.9771V19.6362M46.6337 24.9085H47.2927M37.1434 20.6906L37.6048 21.152M45.5792 20.6906L45.1179 21.152M39.8455 28.2038H42.8771M39.3842 27.5447C38.8309 27.1297 38.4222 26.5512 38.216 25.8911C38.0098 25.2309 38.0165 24.5226 38.2352 23.8665C38.4539 23.2104 38.8735 22.6397 39.4346 22.2353C39.9957 21.8309 40.6697 21.6133 41.3613 21.6133C42.053 21.6133 42.727 21.8309 43.2881 22.2353C43.8492 22.6397 44.2688 23.2104 44.4875 23.8665C44.7062 24.5226 44.7129 25.2309 44.5067 25.8911C44.3005 26.5512 43.8918 27.1297 43.3385 27.5447C43.0812 27.7994 42.8874 28.1111 42.7729 28.4546C42.6584 28.7981 42.6264 29.1637 42.6794 29.5218C42.6794 29.8714 42.5406 30.2067 42.2934 30.4539C42.0462 30.7011 41.7109 30.8399 41.3613 30.8399C41.0118 30.8399 40.6765 30.7011 40.4293 30.4539C40.1821 30.2067 40.0432 29.8714 40.0432 29.5218C40.0963 29.1637 40.0642 28.7981 39.9497 28.4546C39.8353 28.1111 39.6415 27.7994 39.3842 27.5447Z" stroke="#2177C7" stroke-linecap="round" stroke-linejoin="round"></path><path d="M19.3936 39.4107C19.3936 38.2454 19.8565 37.1279 20.6804 36.3039C21.5044 35.4799 22.6219 35.017 23.7872 35.017H32.5745C33.7397 35.017 34.8573 35.4799 35.6812 36.3039C36.5052 37.1279 36.9681 38.2454 36.9681 39.4107C36.9681 39.9933 36.7366 40.5521 36.3247 40.9641C35.9127 41.376 35.3539 41.6075 34.7713 41.6075H21.5904C21.0077 41.6075 20.449 41.376 20.037 40.9641C19.625 40.5521 19.3936 39.9933 19.3936 39.4107Z" fill="white" stroke="#2177C7" stroke-width="1.5" stroke-linejoin="round"></path><path d="M28.1807 30.6234C30.0006 30.6234 31.476 29.1481 31.476 27.3282C31.476 25.5083 30.0006 24.033 28.1807 24.033C26.3608 24.033 24.8855 25.5083 24.8855 27.3282C24.8855 29.1481 26.3608 30.6234 28.1807 30.6234Z" fill="white" stroke="#2177C7" stroke-width="1.5"></path><defs><filter id="filter0_d_11464_38618" x="46.333" y="42.668" width="15.3333" height="22" filterUnits="userSpaceOnUse" color-interpolation-filters="sRGB"><feGaussianBlur stdDeviation="2"></feGaussianBlur></filter></defs></svg>